<svg width="169" height="169" viewBox="0 0 169 169" fill="none" xmlns="http://www.w3.org/2000/svg">
<circle cx="84.5" cy="84.5" r="83.5" stroke="#8D93B4" stroke-width="2"/>
<path d="M46.7264 97.64C45.0464 97.64 43.5664 97.2 42.2864 96.32C41.0197 95.4267 40.0531 94.1667 39.3864 92.54L40.6664 91.48C41.2531 92.88 42.0731 93.9733 43.1264 94.76C44.1931 95.5467 45.3864 95.94 46.7064 95.94C47.6264 95.94 48.4797 95.7467 49.2664 95.36C50.0531 94.96 50.6797 94.4 51.1464 93.68C51.6131 92.96 51.8464 92.1 51.8464 91.1C51.8464 90.2067 51.6397 89.5133 51.2264 89.02C50.8131 88.5133 50.2064 88.08 49.4064 87.72C48.6064 87.36 47.6397 86.96 46.5064 86.52C45.6264 86.1733 44.7664 85.7867 43.9264 85.36C43.0997 84.92 42.4131 84.3667 41.8664 83.7C41.3331 83.02 41.0664 82.16 41.0664 81.12C41.0664 80.12 41.3264 79.2267 41.8464 78.44C42.3797 77.6533 43.1064 77.0333 44.0264 76.58C44.9597 76.1133 46.0064 75.88 47.1664 75.88C48.3397 75.88 49.4131 76.1533 50.3864 76.7C51.3731 77.2333 52.2131 77.9933 52.9064 78.98L51.7464 80.12C50.6531 78.3867 49.1264 77.52 47.1664 77.52C45.9531 77.52 44.9664 77.8467 44.2064 78.5C43.4464 79.1533 43.0664 80 43.0664 81.04C43.0664 81.7867 43.2797 82.4 43.7064 82.88C44.1464 83.3467 44.7264 83.7467 45.4464 84.08C46.1664 84.4133 46.9597 84.7467 47.8264 85.08C49.0664 85.5467 50.1397 86.0067 51.0464 86.46C51.9664 86.9133 52.6731 87.4933 53.1664 88.2C53.6731 88.8933 53.9264 89.84 53.9264 91.04C53.9264 92.3733 53.6131 93.54 52.9864 94.54C52.3731 95.5267 51.5197 96.2933 50.4264 96.84C49.3464 97.3733 48.1131 97.64 46.7264 97.64ZM65.4433 97.64C64.0299 97.64 62.9366 97.16 62.1633 96.2C61.4033 95.2267 61.0233 93.86 61.0233 92.1V78.12H59.0833V76.52H61.0233V68.88H63.1433V76.52H68.3833V78.12H63.1433V92C63.1433 93.2267 63.3766 94.1667 63.8433 94.82C64.3099 95.46 64.9766 95.78 65.8433 95.78C66.6833 95.78 67.3966 95.5533 67.9833 95.1L68.5233 96.8C68.1366 97.0533 67.6699 97.2533 67.1233 97.4C66.5766 97.56 66.0166 97.64 65.4433 97.64ZM83.8811 97.64C81.9478 97.64 80.2078 97.1733 78.6611 96.24C77.1278 95.2933 75.9078 94 75.0011 92.36C74.1078 90.72 73.6611 88.8533 73.6611 86.76C73.6611 84.6533 74.1078 82.7867 75.0011 81.16C75.8944 79.52 77.1078 78.2333 78.6411 77.3C80.1878 76.3533 81.9344 75.88 83.8811 75.88C85.8278 75.88 87.5878 76.3533 89.1611 77.3C90.7344 78.2467 91.9078 79.5533 92.6811 81.22V76.52H94.8011V97H92.6811V92.26C91.8144 93.94 90.6078 95.26 89.0611 96.22C87.5278 97.1667 85.8011 97.64 83.8811 97.64ZM84.3211 95.76C85.9744 95.76 87.4344 95.38 88.7011 94.62C89.9811 93.8467 90.9811 92.78 91.7011 91.42C92.4344 90.06 92.8011 88.5067 92.8011 86.76C92.8011 85 92.4344 83.4467 91.7011 82.1C90.9811 80.74 89.9811 79.68 88.7011 78.92C87.4344 78.1467 85.9744 77.76 84.3211 77.76C82.6678 77.76 81.2011 78.1467 79.9211 78.92C78.6544 79.68 77.6544 80.74 76.9211 82.1C76.1878 83.4467 75.8211 85 75.8211 86.76C75.8211 88.5067 76.1878 90.06 76.9211 91.42C77.6544 92.7667 78.6544 93.8267 79.9211 94.6C81.2011 95.3733 82.6678 95.76 84.3211 95.76ZM103.773 97V76.52H105.893V79.58C106.506 78.3533 107.32 77.4333 108.333 76.82C109.346 76.1933 110.546 75.88 111.933 75.88C112.52 75.88 113.1 75.94 113.673 76.06C114.26 76.1667 114.766 76.3133 115.193 76.5L114.333 78.3C113.946 78.1133 113.506 77.9733 113.013 77.88C112.533 77.7867 112.06 77.74 111.593 77.74C110.633 77.74 109.713 77.9933 108.833 78.5C107.966 78.9933 107.26 79.64 106.713 80.44C106.166 81.2267 105.893 82.0667 105.893 82.96V97H103.773ZM125.678 97.64C124.264 97.64 123.171 97.16 122.398 96.2C121.638 95.2267 121.258 93.86 121.258 92.1V78.12H119.318V76.52H121.258V68.88H123.378V76.52H128.618V78.12H123.378V92C123.378 93.2267 123.611 94.1667 124.078 94.82C124.544 95.46 125.211 95.78 126.078 95.78C126.918 95.78 127.631 95.5533 128.218 95.1L128.758 96.8C128.371 97.0533 127.904 97.2533 127.358 97.4C126.811 97.56 126.251 97.64 125.678 97.64Z" fill="#8D93B4"/>
</svg>
