<svg width="169" height="169" viewBox="0 0 169 169" fill="none" xmlns="http://www.w3.org/2000/svg">
<circle cx="84.5" cy="84.5" r="83.5" stroke="#8D93B4" stroke-width="2"/>
<path d="M48.9061 97.64C47.2261 97.64 45.7461 97.2 44.4661 96.32C43.1994 95.4267 42.2328 94.1667 41.5661 92.54L42.8461 91.48C43.4328 92.88 44.2528 93.9733 45.3061 94.76C46.3728 95.5467 47.5661 95.94 48.8861 95.94C49.8061 95.94 50.6594 95.7467 51.4461 95.36C52.2328 94.96 52.8594 94.4 53.3261 93.68C53.7928 92.96 54.0261 92.1 54.0261 91.1C54.0261 90.2067 53.8194 89.5133 53.4061 89.02C52.9928 88.5133 52.3861 88.08 51.5861 87.72C50.7861 87.36 49.8194 86.96 48.6861 86.52C47.8061 86.1733 46.9461 85.7867 46.1061 85.36C45.2794 84.92 44.5928 84.3667 44.0461 83.7C43.5128 83.02 43.2461 82.16 43.2461 81.12C43.2461 80.12 43.5061 79.2267 44.0261 78.44C44.5594 77.6533 45.2861 77.0333 46.2061 76.58C47.1394 76.1133 48.1861 75.88 49.3461 75.88C50.5194 75.88 51.5928 76.1533 52.5661 76.7C53.5528 77.2333 54.3928 77.9933 55.0861 78.98L53.9261 80.12C52.8328 78.3867 51.3061 77.52 49.3461 77.52C48.1328 77.52 47.1461 77.8467 46.3861 78.5C45.6261 79.1533 45.2461 80 45.2461 81.04C45.2461 81.7867 45.4594 82.4 45.8861 82.88C46.3261 83.3467 46.9061 83.7467 47.6261 84.08C48.3461 84.4133 49.1394 84.7467 50.0061 85.08C51.2461 85.5467 52.3194 86.0067 53.2261 86.46C54.1461 86.9133 54.8528 87.4933 55.3461 88.2C55.8528 88.8933 56.1061 89.84 56.1061 91.04C56.1061 92.3733 55.7928 93.54 55.1661 94.54C54.5528 95.5267 53.6994 96.2933 52.6061 96.84C51.5261 97.3733 50.2928 97.64 48.9061 97.64ZM67.623 97.64C66.2096 97.64 65.1163 97.16 64.343 96.2C63.583 95.2267 63.203 93.86 63.203 92.1V78.12H61.263V76.52H63.203V68.88H65.323V76.52H70.563V78.12H65.323V92C65.323 93.2267 65.5563 94.1667 66.023 94.82C66.4896 95.46 67.1563 95.78 68.023 95.78C68.863 95.78 69.5763 95.5533 70.163 95.1L70.703 96.8C70.3163 97.0533 69.8496 97.2533 69.303 97.4C68.7563 97.56 68.1963 97.64 67.623 97.64ZM87.0189 97.64C84.9122 97.64 83.0122 97.18 81.3189 96.26C79.6389 95.34 78.3056 94.0667 77.3189 92.44C76.3456 90.8 75.8589 88.9067 75.8589 86.76C75.8589 84.6133 76.3456 82.7267 77.3189 81.1C78.3056 79.46 79.6389 78.18 81.3189 77.26C83.0122 76.34 84.9122 75.88 87.0189 75.88C89.1256 75.88 91.0189 76.34 92.6989 77.26C94.3922 78.18 95.7322 79.46 96.7189 81.1C97.7056 82.7267 98.1989 84.6133 98.1989 86.76C98.1989 88.9067 97.7056 90.8 96.7189 92.44C95.7322 94.0667 94.3922 95.34 92.6989 96.26C91.0189 97.18 89.1256 97.64 87.0189 97.64ZM87.0189 95.7C88.7522 95.7 90.2922 95.32 91.6389 94.56C92.9989 93.7867 94.0656 92.7267 94.8389 91.38C95.6256 90.0333 96.0189 88.4933 96.0189 86.76C96.0189 85.0267 95.6256 83.4867 94.8389 82.14C94.0656 80.7933 92.9989 79.74 91.6389 78.98C90.2922 78.2067 88.7522 77.82 87.0189 77.82C85.2856 77.82 83.7389 78.2067 82.3789 78.98C81.0322 79.74 79.9656 80.7933 79.1789 82.14C78.4056 83.4867 78.0189 85.0267 78.0189 86.76C78.0189 88.4933 78.4056 90.0333 79.1789 91.38C79.9656 92.7267 81.0322 93.7867 82.3789 94.56C83.7389 95.32 85.2856 95.7 87.0189 95.7ZM105.562 107.4V76.52H107.682V81.18C108.509 79.5267 109.695 78.2333 111.242 77.3C112.789 76.3533 114.515 75.88 116.422 75.88C118.395 75.88 120.155 76.3533 121.702 77.3C123.249 78.2467 124.469 79.54 125.362 81.18C126.255 82.8067 126.702 84.6667 126.702 86.76C126.702 88.84 126.255 90.7 125.362 92.34C124.469 93.98 123.249 95.2733 121.702 96.22C120.169 97.1667 118.422 97.64 116.462 97.64C114.569 97.64 112.842 97.1667 111.282 96.22C109.735 95.26 108.535 93.94 107.682 92.26V107.4H105.562ZM116.062 95.76C117.702 95.76 119.162 95.3733 120.442 94.6C121.722 93.8267 122.722 92.7667 123.442 91.42C124.175 90.06 124.542 88.5067 124.542 86.76C124.542 85.0133 124.175 83.46 123.442 82.1C122.722 80.74 121.722 79.68 120.442 78.92C119.175 78.1467 117.715 77.76 116.062 77.76C114.409 77.76 112.942 78.1467 111.662 78.92C110.382 79.68 109.375 80.74 108.642 82.1C107.922 83.4467 107.562 85 107.562 86.76C107.562 88.5067 107.922 90.06 108.642 91.42C109.375 92.78 110.382 93.8467 111.662 94.62C112.955 95.38 114.422 95.76 116.062 95.76Z" fill="#8D93B4"/>
</svg>
