<svg width="169" height="56" viewBox="0 0 169 56" fill="none" xmlns="http://www.w3.org/2000/svg">
<path fill-rule="evenodd" clip-rule="evenodd" d="M4.96927 53.1713L4.97712 53.1814L4.98513 53.1913C6.51191 55.0912 8.66689 55.9826 11.211 55.9826C12.2229 55.9826 13.2153 55.8416 14.1833 55.5594C15.1307 55.303 15.9959 54.9395 16.7491 54.4449L17.8151 53.7448L15.8921 47.6765L13.9849 49.1538C13.4396 49.5761 12.747 49.8223 11.8102 49.8223C10.9964 49.8223 10.5297 49.5571 10.1806 49.0807C9.76887 48.4986 9.44926 47.4891 9.44926 45.83V26.6718H17.2988V20.9019H9.44926V9.42989H2.90613V20.9019H0V26.6718H2.90613V45.9802C2.90613 48.8421 3.52025 51.3111 4.96927 53.1713ZM15.0158 50.485C14.137 51.1657 13.0684 51.5061 11.8101 51.5061C12.4169 51.5061 12.9795 51.4268 13.498 51.2686C14.0549 51.0986 14.5608 50.8375 15.0158 50.485Z" fill="#8187AD"/>
<path fill-rule="evenodd" clip-rule="evenodd" d="M24.1117 20.9019V55.0216H30.6549V32.2558C30.6549 31.2821 30.945 30.3518 31.5833 29.431L31.587 29.4256L31.5907 29.4202C32.2614 28.4364 33.1272 27.6388 34.2097 27.0211L34.2133 27.0191L34.2169 27.017C35.2948 26.3949 36.3846 26.1012 37.5098 26.1012C38.0957 26.1012 38.6969 26.1599 39.3149 26.2803L39.3191 26.2812L39.3233 26.282C39.9407 26.3991 40.4551 26.5679 40.8809 26.774L42.4055 27.5117L45.1701 21.7115L43.5788 21.0136C42.7978 20.6711 41.9146 20.4197 40.9495 20.2425C39.9839 20.0415 39.0065 19.9409 38.0191 19.9409C35.6833 19.9409 33.5698 20.4722 31.746 21.6009C31.3645 21.8327 31.0009 22.0876 30.6549 22.3648V20.9019H24.1117ZM38.0191 21.6246C38.8979 21.6246 39.7668 21.7147 40.6256 21.8949C40.8542 21.9365 41.0746 21.9823 41.287 22.032C41.8911 22.1737 42.4297 22.3482 42.9026 22.5556C42.2635 22.2753 41.5045 22.0551 40.6256 21.8949C39.7668 21.7147 38.8979 21.6246 38.0191 21.6246C35.9419 21.6246 34.1442 22.0953 32.6263 23.0362C31.1083 23.9572 29.8899 25.3387 28.9711 27.1806C29.4507 26.2191 30.012 25.3829 30.6549 24.6724C31.2436 24.0218 31.9007 23.4765 32.6263 23.0362C34.1442 22.0953 35.9419 21.6246 38.0191 21.6246Z" fill="#8187AD"/>
<path fill-rule="evenodd" clip-rule="evenodd" d="M55.6966 53.6284L55.7039 53.6329L55.7112 53.6373C58.3094 55.2089 61.2211 55.9826 64.4022 55.9826C67.5703 55.9826 70.4674 55.1953 73.0479 53.5983L73.0496 53.5973L73.0513 53.5962C74.0946 52.9471 75.0447 52.1993 75.9009 51.3555V55.0216H82.4441V20.9019H75.9009V24.3931C75.0898 23.6124 74.1827 22.9191 73.1812 22.3151C70.5461 20.7258 67.6058 19.9409 64.4022 19.9409C61.1995 19.9409 58.2747 20.7255 55.674 22.3207C53.1147 23.8826 51.0949 26.0367 49.6218 28.7468C48.1312 31.4687 47.409 34.5558 47.409 37.9617C47.409 41.3512 48.1326 44.4364 49.6206 47.1745L49.6231 47.1791L49.6256 47.1837C51.1175 49.8887 53.1434 52.0483 55.6966 53.6284ZM77.5845 29.6429C76.4261 27.1402 74.6684 25.1785 72.3116 23.757C73.7229 24.6082 74.9193 25.653 75.9009 26.8918C76.5586 27.7218 77.1198 28.6388 77.5845 29.6429ZM74.6278 44.1728C73.6876 45.9529 72.3998 47.3246 70.7525 48.3227C69.1477 49.2873 67.2684 49.7922 65.0613 49.7922C62.8606 49.7922 60.9725 49.2802 59.3459 48.2961C57.7119 47.2954 56.4187 45.9272 55.4571 44.1581C54.5081 42.3925 54.012 40.3415 54.012 37.9617C54.012 35.5577 54.5098 33.5091 55.4556 31.7681L55.4572 31.7651L55.4589 31.762C56.4212 29.9732 57.7122 28.61 59.3379 27.6322L59.3401 27.6309L59.3423 27.6296C60.9697 26.644 62.8589 26.1312 65.0613 26.1312C67.264 26.1312 69.14 26.6441 70.7437 27.6255L70.7526 27.6309L70.7615 27.6362C72.4033 28.6134 73.6885 29.9722 74.6278 31.7507L74.6324 31.7595L74.6371 31.7681C75.5829 33.5091 76.0807 35.5577 76.0807 37.9617C76.0807 40.3431 75.584 42.3951 74.6338 44.1615L74.6308 44.1671L74.6278 44.1728Z" fill="#8187AD"/>
<path fill-rule="evenodd" clip-rule="evenodd" d="M99.0597 20.9019H92.5166V55.0216H99.0597V32.8264C99.0597 31.6481 99.3574 30.5487 99.9689 29.5002C100.565 28.4775 101.428 27.6311 102.608 26.9647C103.722 26.3355 105.131 25.9811 106.903 25.9811C109.377 25.9811 111.077 26.7432 112.251 28.1014L112.257 28.109L112.264 28.1165C113.472 29.4807 114.208 31.6112 114.208 34.7784V55.0216H120.751V34.2078C120.751 31.3281 120.273 28.781 119.237 26.6327C118.202 24.4655 116.675 22.7772 114.66 21.6347C112.658 20.4797 110.319 19.9409 107.712 19.9409C104.856 19.9409 102.339 20.5155 100.254 21.7727C99.835 22.0241 99.4364 22.2893 99.0597 22.5687V20.9019ZM101.121 23.2164C100.14 23.8041 99.3151 24.4587 98.6461 25.1803C98.7779 25.0381 98.9158 24.8985 99.0597 24.7615C99.6463 24.2033 100.333 23.6883 101.121 23.2164ZM98.5145 28.652C98.7991 28.164 99.1301 27.7111 99.5074 27.2935Z" fill="#8187AD"/>
<path fill-rule="evenodd" clip-rule="evenodd" d="M130.259 0V55.0216H136.802V42.6215L147.657 55.0216H156.222L140.311 36.9583L155.691 20.9019H146.898L136.802 31.3374V0H130.259Z" fill="#8187AD"/>
<path fill-rule="evenodd" clip-rule="evenodd" d="M168.371 20.9019H161.828V55.0216H168.371V20.9019Z" fill="#8187AD"/>
<path fill-rule="evenodd" clip-rule="evenodd" d="M163.136 17.6392C163.738 17.9944 164.403 18.1729 165.099 18.1729C165.791 18.1729 166.47 18.0059 167.082 17.628C167.66 17.2832 168.128 16.8108 168.469 16.2302C168.83 15.6144 169 14.9365 169 14.2369C169 13.549 168.826 12.8834 168.457 12.2843C168.118 11.7126 167.653 11.2469 167.082 10.9059C166.47 10.5279 165.791 10.3609 165.099 10.3609C164.403 10.3609 163.738 10.5394 163.136 10.8945C162.556 11.2365 162.085 11.7062 161.741 12.2844C161.365 12.8967 161.199 13.5759 161.199 14.2669C161.199 14.9622 161.376 15.6274 161.73 16.2302C162.074 16.8172 162.549 17.2935 163.136 17.6392ZM167.315 14.3152C167.303 14.7047 167.204 15.059 167.017 15.378C167.004 15.3993 166.992 15.4203 166.978 15.441" fill="#8187AD"/>
</svg>
