<svg width="169" height="169" viewBox="0 0 169 169" fill="none" xmlns="http://www.w3.org/2000/svg">
<circle cx="84.5" cy="84.5" r="83.5" stroke="#676D8F" stroke-width="2"/>
<path d="M34.3886 97.6401C32.9752 97.6401 31.8819 97.1601 31.1086 96.2001C30.3486 95.2268 29.9686 93.8601 29.9686 92.1001V78.1201H28.0286V76.5201H29.9686V68.8801H32.0886V76.5201H37.3286V78.1201H32.0886V92.0001C32.0886 93.2268 32.3219 94.1668 32.7886 94.8201C33.2552 95.4601 33.9219 95.7801 34.7886 95.7801C35.6286 95.7801 36.3419 95.5534 36.9286 95.1001L37.4686 96.8001C37.0819 97.0534 36.6152 97.2534 36.0686 97.4001C35.5219 97.5601 34.9619 97.6401 34.3886 97.6401Z" fill="#676D8F"/>
<path d="M44.1245 97.0001V76.5201H46.2445V79.5801C46.8578 78.3534 47.6712 77.4334 48.6845 76.8201C49.6978 76.1934 50.8978 75.8801 52.2845 75.8801C52.8712 75.8801 53.4512 75.9401 54.0245 76.0601C54.6112 76.1668 55.1178 76.3134 55.5445 76.5001L54.6845 78.3001C54.2978 78.1134 53.8578 77.9734 53.3645 77.8801C52.8845 77.7868 52.4112 77.7401 51.9445 77.7401C50.9845 77.7401 50.0645 77.9934 49.1845 78.5001C48.3178 78.9934 47.6112 79.6401 47.0645 80.4401C46.5178 81.2268 46.2445 82.0668 46.2445 82.9601V97.0001H44.1245Z" fill="#676D8F"/>
<path d="M69.8967 97.6401C67.9634 97.6401 66.2234 97.1734 64.6767 96.2401C63.1434 95.2934 61.9234 94.0001 61.0167 92.3601C60.1234 90.7201 59.6767 88.8534 59.6767 86.7601C59.6767 84.6534 60.1234 82.7868 61.0167 81.1601C61.91 79.5201 63.1234 78.2334 64.6567 77.3001C66.2034 76.3534 67.95 75.8801 69.8967 75.8801C71.8434 75.8801 73.6034 76.3534 75.1767 77.3001C76.75 78.2468 77.9234 79.5534 78.6967 81.2201V76.5201H80.8167V97.0001H78.6967V92.2601C77.83 93.9401 76.6234 95.2601 75.0767 96.2201C73.5434 97.1668 71.8167 97.6401 69.8967 97.6401ZM70.3367 95.7601C71.99 95.7601 73.45 95.3801 74.7167 94.6201C75.9967 93.8468 76.9967 92.7801 77.7167 91.4201C78.45 90.0601 78.8167 88.5068 78.8167 86.7601C78.8167 85.0001 78.45 83.4468 77.7167 82.1001C76.9967 80.7401 75.9967 79.6801 74.7167 78.9201C73.45 78.1468 71.99 77.7601 70.3367 77.7601C68.6834 77.7601 67.2167 78.1468 65.9367 78.9201C64.67 79.6801 63.67 80.7401 62.9367 82.1001C62.2034 83.4468 61.8367 85.0001 61.8367 86.7601C61.8367 88.5068 62.2034 90.0601 62.9367 91.4201C63.67 92.7668 64.67 93.8268 65.9367 94.6001C67.2167 95.3734 68.6834 95.7601 70.3367 95.7601Z" fill="#676D8F"/>
<path d="M89.7886 97.0001V76.5201H91.9086V79.4401C92.4152 78.4668 93.2486 77.6334 94.4086 76.9401C95.5819 76.2334 97.0486 75.8801 98.8086 75.8801C100.395 75.8801 101.755 76.2068 102.889 76.8601C104.022 77.5001 104.889 78.4468 105.489 79.7001C106.089 80.9401 106.389 82.4601 106.389 84.2601V97.0001H104.269V84.6401C104.269 82.3734 103.742 80.6468 102.689 79.4601C101.649 78.2601 100.175 77.6601 98.2686 77.6601C96.9352 77.6601 95.7952 77.9268 94.8486 78.4601C93.9019 78.9934 93.1752 79.6934 92.6686 80.5601C92.1619 81.4268 91.9086 82.3534 91.9086 83.3401V97.0001H89.7886Z" fill="#676D8F"/>
<path d="M114.984 97.0001V62.6001H117.104V85.1201L125.444 76.5201H128.204L119.044 86.0601L128.704 97.0001H125.984L117.104 86.8801V97.0001H114.984Z" fill="#676D8F"/>
<path d="M136.058 97.0001V76.5201H138.178V97.0001H136.058ZM137.118 72.4601C136.851 72.4601 136.604 72.3934 136.378 72.2601C136.151 72.1268 135.971 71.9468 135.838 71.7201C135.704 71.4934 135.638 71.2468 135.638 70.9801C135.638 70.7001 135.704 70.4534 135.838 70.2401C135.971 70.0134 136.151 69.8334 136.378 69.7001C136.604 69.5668 136.851 69.5001 137.118 69.5001C137.398 69.5001 137.644 69.5668 137.858 69.7001C138.084 69.8334 138.264 70.0134 138.398 70.2401C138.531 70.4534 138.598 70.6934 138.598 70.9601C138.598 71.2401 138.531 71.4934 138.398 71.7201C138.264 71.9468 138.084 72.1268 137.858 72.2601C137.644 72.3934 137.398 72.4601 137.118 72.4601Z" fill="#676D8F"/>
</svg>
